<?xml version="1.0" standalone="no"?>
<!DOCTYPE svg PUBLIC "-//W3C//DTD SVG 20010904//EN"
 "http://www.w3.org/TR/2001/REC-SVG-20010904/DTD/svg10.dtd">
<svg version="1.0" xmlns="http://www.w3.org/2000/svg"
 width="2790.000000pt" height="3400.000000pt" viewBox="0 0 2790.000000 3400.000000"
 preserveAspectRatio="xMidYMid meet">

<g transform="translate(0.000000,3400.000000) scale(0.100000,-0.100000)"
fill="#000000" stroke="none">
<path d="M11410 31138 l0 -2324 53 -14 c180 -46 577 -190 814 -296 577 -258
1031 -562 1458 -975 l120 -117 108 119 c245 270 622 566 960 753 l67 38 0
2394 c0 1317 -2 2394 -5 2394 -14 0 -265 -110 -399 -174 -207 -99 -403 -210
-581 -328 -144 -96 -151 -99 -175 -85 -14 8 -97 59 -185 112 -301 183 -753
392 -1155 535 -251 89 -872 260 -1037 286 l-43 7 0 -2325z"/>
<path d="M13283 25248 l-803 -803 19 -80 c41 -169 125 -357 222 -495 73 -104
236 -264 347 -339 150 -101 311 -171 492 -212 128 -30 377 -37 511 -15 120 20
306 79 406 129 185 94 377 256 500 423 116 158 213 383 249 579 21 119 21 350
-1 481 -62 361 -258 673 -565 898 -128 94 -388 205 -540 231 l-35 6 -802 -803z"/>
<path d="M21160 24759 c-924 -69 -1834 -332 -2715 -783 -935 -479 -1838 -1199
-2551 -2036 -195 -230 -478 -595 -472 -611 5 -11 2268 -1781 2285 -1786 5 -2
28 75 52 170 213 834 609 1576 1184 2215 665 739 1581 1288 2548 1526 395 97
722 142 1184 161 257 11 643 -17 940 -66 249 -42 545 -114 545 -133 1 -6 67
-33 148 -59 633 -206 1240 -553 1761 -1006 160 -138 424 -407 556 -566 679
-813 1079 -1763 1191 -2830 22 -209 25 -750 6 -950 -42 -431 -125 -826 -253
-1208 -38 -113 -159 -422 -176 -451 -6 -10 -313 45 -1323 235 -723 137 -1315
247 -1315 246 -1 -1 -23 -56 -49 -122 -64 -160 -210 -445 -293 -575 -98 -153
-203 -299 -243 -338 -19 -19 -34 -39 -32 -44 1 -5 -1 -7 -6 -4 -10 6 -58 -54
-54 -67 1 -5 -1 -6 -6 -3 -5 3 -58 -49 -118 -116 -222 -248 -345 -359 -582
-525 -818 -572 -1834 -795 -2812 -617 -740 136 -1391 471 -1959 1009 l-75 70
39 -55 c159 -225 403 -509 606 -704 753 -726 1677 -1196 2694 -1370 724 -123
1509 -85 2208 108 l87 24 0 -688 0 -688 -181 -82 c-473 -214 -948 -368 -1434
-465 -389 -77 -659 -109 -1085 -127 -304 -13 -632 -3 -910 27 -74 8 -162 17
-196 21 l-60 6 -785 -868 c-431 -478 -859 -952 -950 -1054 -92 -102 -451 -500
-798 -885 l-631 -699 0 -2170 c0 -2139 0 -2170 19 -2151 11 11 280 308 598
661 498 552 2818 3120 4168 4614 237 261 1222 1353 2190 2425 968 1072 1821
2013 1895 2090 514 534 902 1082 1209 1710 585 1194 797 2499 621 3833 -130
987 -501 1977 -1057 2822 -410 622 -891 1143 -1510 1637 -993 792 -2086 1215
-3338 1293 -183 11 -610 11 -765 -1z"/>
<path d="M3297 24001 c-1009 -600 -1840 -1438 -2411 -2434 -451 -787 -732
-1635 -836 -2523 -27 -236 -38 -411 -44 -689 -4 -213 -4 -224 4 -95 11 164 44
437 54 448 4 4 655 34 1447 68 792 34 1442 64 1445 66 2 3 13 55 24 116 132
734 511 1439 1061 1977 651 636 1448 1000 2358 1076 173 14 565 6 726 -15 618
-82 1156 -280 1650 -610 248 -165 429 -318 619 -525 129 -140 146 -157 146
-147 0 9 -156 207 -255 322 -433 505 -1009 948 -1630 1254 -961 472 -2052 653
-3135 519 -307 -38 -643 -108 -922 -193 -65 -20 -120 -36 -123 -36 -3 0 -6
342 -7 760 l-3 760 -168 -99z"/>
<path d="M10260 16778 c0 -9 -21 -81 -46 -160 -158 -496 -416 -988 -735 -1408
-153 -202 -249 -310 -444 -506 -851 -852 -1962 -1386 -3180 -1528 -335 -39
-846 -46 -1155 -16 -536 52 -1077 182 -1547 371 -166 66 -477 217 -649 314
-647 365 -1246 910 -1664 1512 -251 363 -471 802 -610 1221 -47 142 -50 136
-9 -18 356 -1340 1109 -2523 2169 -3412 1110 -931 2457 -1464 3915 -1549 242
-14 688 -6 900 16 1128 118 2123 561 3215 1434 309 247 576 482 1195 1056 209
194 422 389 473 435 50 45 92 87 92 91 0 8 -1809 2049 -1891 2134 -21 22 -29
25 -29 13z"/>
</g>
</svg>
